# Blender v2.80 (sub 75) OBJ File: 'untitled.blend'
# www.blender.org
mtllib wizard.mtl
o Cube_Cube.001
v 1.009011 3.750524 0.447327
v 0.896840 6.677351 0.558402
v 1.102749 3.750524 -0.084948
v 1.029700 6.677351 -0.196022
v 1.775251 4.373120 0.513090
v 1.743874 6.677351 0.691262
v 1.845356 4.373120 0.115009
v 1.876734 6.677351 -0.063162
v 0.855930 6.966265 0.444540
v 0.940114 6.966265 -0.033484
v 1.510748 6.966265 0.050700
v 1.426564 6.966265 0.528724
v 0.858232 6.842991 0.498826
v 0.965624 6.842991 -0.110978
v 1.560646 6.842991 0.606218
v 1.668038 6.842991 -0.003587
v 0.803489 6.677351 0.623797
v 0.964305 6.677351 -0.289374
v 1.809269 6.677351 0.784613
v 1.970085 6.677351 -0.128557
v 0.790912 6.571383 0.618999
v 0.962369 6.571383 -0.354590
v 1.857111 6.571383 0.790456
v 2.028568 6.571383 -0.183133
v 0.000000 0.769480 -1.370600
v 0.000000 10.229252 -1.007582
v 0.881005 0.769480 -1.049940
v 0.647661 10.229252 -0.771852
v 1.349777 0.769480 -0.238002
v 0.992274 10.229252 -0.174965
v 1.186975 0.769480 0.685300
v 0.872591 10.229252 0.503791
v 0.468773 0.769480 1.287943
v 0.344613 10.229252 0.946817
v -0.468773 0.769480 1.287942
v -0.344613 10.229252 0.946817
v -1.186974 0.769480 0.685300
v -0.872591 10.229252 0.503791
v -1.349777 0.769480 -0.238002
v -0.992274 10.229252 -0.174965
v -0.881005 0.769480 -1.049940
v -0.647661 10.229252 -0.771852
v 0.000000 0.769480 -1.370600
v 0.881005 0.769480 -1.049940
v 1.349777 0.769480 -0.238002
v 1.186975 0.769480 0.685300
v 0.468773 0.769480 1.287943
v -0.468773 0.769480 1.287942
v -1.186974 0.769480 0.685300
v -1.349777 0.769480 -0.238002
v -0.881005 0.769480 -1.049940
v 0.000000 0.769480 -2.104526
v 1.352763 0.769480 -1.612160
v 2.072553 0.769480 -0.365447
v 1.822573 0.769480 1.052263
v 0.719790 0.769480 1.977607
v -0.719790 0.769480 1.977607
v -1.822572 0.769480 1.052262
v -2.072553 0.769480 -0.365447
v -1.352763 0.769480 -1.612160
v 0.000000 0.273321 -2.278937
v 1.464872 0.273321 -1.745767
v 2.244315 0.273321 -0.395733
v 1.973617 0.273321 1.139469
v 0.779442 0.273321 2.141500
v -0.779443 0.273321 2.141500
v -1.973617 0.273321 1.139468
v -2.244315 0.273321 -0.395733
v -1.464872 0.273321 -1.745766
v 0.000000 -0.223922 -2.229288
v 1.432959 -0.223922 -1.707734
v 2.195421 -0.223922 -0.387112
v 1.930621 -0.223922 1.114644
v 0.762461 -0.223922 2.094846
v -0.762462 -0.223922 2.094846
v -1.930620 -0.223922 1.114644
v -2.195421 -0.223922 -0.387112
v -1.432959 -0.223922 -1.707734
v 0.000000 10.257366 -1.403562
v 0.902193 10.257366 -1.075191
v 1.382239 10.257366 -0.243726
v 1.215521 10.257366 0.701781
v 0.480046 10.257366 1.318917
v -0.480047 10.257366 1.318917
v -1.215520 10.257366 0.701781
v -1.382238 10.257366 -0.243726
v -0.902192 10.257366 -1.075191
v 0.000000 10.229252 -1.249453
v 0.803133 10.229252 -0.957136
v 1.230471 10.229252 -0.216965
v 1.082058 10.229252 0.624727
v 0.427338 10.229252 1.174102
v -0.427338 10.229252 1.174101
v -1.082058 10.229252 0.624726
v -1.230471 10.229252 -0.216965
v -0.803133 10.229252 -0.957136
v 0.000000 10.229252 -1.249453
v 0.803133 10.229252 -0.957136
v 1.230471 10.229252 -0.216965
v 1.082058 10.229252 0.624727
v 0.427338 10.229252 1.174102
v -0.427338 10.229252 1.174101
v -1.082058 10.229252 0.624726
v -1.230471 10.229252 -0.216965
v -0.803133 10.229252 -0.957136
v 0.000000 9.775564 -0.264726
v 0.170163 9.775564 -0.202792
v 0.260705 9.775564 -0.045969
v 0.229260 9.775564 0.132363
v 0.090542 9.775564 0.248761
v -0.090542 9.775564 0.248761
v -0.229260 9.775564 0.132363
v -0.260705 9.775564 -0.045969
v -0.170163 9.775564 -0.202792
v 0.000000 9.813705 -0.264726
v 0.170163 9.813705 -0.202792
v 0.260705 9.813705 -0.045969
v 0.229260 9.813705 0.132363
v 0.090542 9.813705 0.248761
v -0.090542 9.813705 0.248761
v -0.229260 9.813705 0.132363
v -0.260705 9.813705 -0.045969
v -0.170163 9.813705 -0.202792
v 0.000000 9.723048 -0.344620
v 0.221517 9.723048 -0.263994
v 0.339384 9.723048 -0.059843
v 0.298450 9.761190 0.172310
v 0.117867 9.761190 0.323837
v -0.117867 9.761190 0.323837
v -0.298449 9.761190 0.172310
v -0.339384 9.761190 -0.059843
v -0.221517 9.761190 -0.263994
v 0.000000 9.873299 -1.204159
v 0.774019 9.873299 -0.922439
v 1.185865 9.873299 -0.209100
v 1.042832 9.873299 0.602080
v 0.411847 9.873299 1.131539
v -0.411847 9.873299 1.131539
v -1.042832 9.873299 0.602079
v -1.185865 9.873299 -0.209100
v -0.774018 9.873299 -0.922439
v 0.000000 9.873299 -1.493219
v 0.959823 9.873299 -1.143872
v 1.470533 9.873299 -0.259295
v 1.293166 9.873299 0.746609
v 0.510711 9.873299 1.403167
v -0.510711 9.873299 1.403167
v -1.293165 9.873299 0.746609
v -1.470533 9.873299 -0.259295
v -0.959822 9.873299 -1.143872
v 0.852935 11.219479 -0.416960
v 0.992616 11.435897 -0.175025
v 0.944106 11.219479 0.100093
v -0.045689 11.219799 0.953228
v -0.346947 11.388488 0.953228
v -0.577724 11.219799 0.759583
v -0.772518 11.219159 -0.544126
v -0.643739 11.385697 -0.767178
v -0.401713 11.219159 -0.855269
v 0.824111 11.211298 -0.382609
v 0.948456 11.427716 -0.167238
v 0.905271 11.211298 0.077672
v -0.062228 11.210978 0.907788
v -0.330408 11.379667 0.907788
v -0.535846 11.210978 0.735405
v -0.731804 11.211617 -0.536947
v -0.617165 11.378156 -0.735509
v -0.401713 11.211617 -0.813927
vt 0.375000 0.000000
vt 0.625000 0.000000
vt 0.625000 0.250000
vt 0.375000 0.250000
vt 0.625000 0.500000
vt 0.375000 0.500000
vt 0.625000 0.750000
vt 0.375000 0.750000
vt 0.625000 1.000000
vt 0.375000 1.000000
vt 0.125000 0.500000
vt 0.125000 0.750000
vt 0.625000 0.750000
vt 0.625000 1.000000
vt 0.625000 0.500000
vt 0.875000 0.500000
vt 0.875000 0.750000
vt 0.625000 0.250000
vt 0.625000 0.000000
vt 0.625000 1.000000
vt 0.625000 0.750000
vt 0.625000 0.500000
vt 0.625000 0.250000
vt 0.625000 0.000000
vt 0.625000 0.750000
vt 0.625000 0.500000
vt 0.625000 0.250000
vt 0.625000 0.000000
vt 0.625000 1.000000
vt 0.625000 1.000000
vt 0.625000 0.750000
vt 0.625000 0.500000
vt 0.625000 0.250000
vt 0.625000 0.000000
vt 1.000000 0.000000
vt 1.000000 1.000000
vt 0.888889 1.000000
vt 0.888889 0.000000
vt 0.777778 1.000000
vt 0.777778 0.000000
vt 0.666667 1.000000
vt 0.666667 0.000000
vt 0.555556 1.000000
vt 0.555556 0.000000
vt 0.444444 1.000000
vt 0.444444 0.000000
vt 0.333333 1.000000
vt 0.333333 0.000000
vt 0.222222 1.000000
vt 0.222222 0.000000
vt 0.111111 1.000000
vt 0.111111 0.000000
vt 0.000000 1.000000
vt 0.000000 0.000000
vt 0.333333 0.000000
vt 0.444444 0.000000
vt 0.555556 0.000000
vt 0.666667 0.000000
vt 0.888889 0.000000
vt 1.000000 0.000000
vt 0.777778 0.000000
vt 0.000000 0.000000
vt 0.111111 0.000000
vt 0.222222 0.000000
vt 0.222222 0.000000
vt 0.333333 0.000000
vt 0.555556 0.000000
vt 0.666667 0.000000
vt 0.888889 0.000000
vt 1.000000 0.000000
vt 0.111111 0.000000
vt 0.444444 0.000000
vt 0.777778 0.000000
vt 0.000000 0.000000
vt 0.333333 0.000000
vt 0.444444 0.000000
vt 0.666667 0.000000
vt 0.777778 0.000000
vt 0.222222 0.000000
vt 0.555556 0.000000
vt 0.888889 0.000000
vt 1.000000 0.000000
vt 0.111111 0.000000
vt 0.000000 0.000000
vt 0.444444 0.000000
vt 0.555556 0.000000
vt 0.777778 0.000000
vt 0.888889 0.000000
vt 0.000000 0.000000
vt 0.111111 0.000000
vt 0.333333 0.000000
vt 0.666667 0.000000
vt 0.222222 0.000000
vt 1.000000 0.000000
vt 0.222222 1.000000
vt 0.111111 1.000000
vt 0.777778 1.000000
vt 0.666667 1.000000
vt 0.444444 1.000000
vt 0.333333 1.000000
vt 0.333333 1.000000
vt 0.444444 1.000000
vt 0.555556 1.000000
vt 0.555556 1.000000
vt 0.555556 1.000000
vt 0.444444 1.000000
vt 0.666667 1.000000
vt 0.666667 1.000000
vt 0.333333 1.000000
vt 0.888889 1.000000
vt 0.777778 1.000000
vt 0.777778 1.000000
vt 0.555556 1.000000
vt 0.444444 1.000000
vt 0.222222 1.000000
vt 0.333333 1.000000
vt 0.222222 1.000000
vt 0.666667 1.000000
vt 0.555556 1.000000
vt 0.888889 1.000000
vt 1.000000 1.000000
vt 1.000000 1.000000
vt 0.888889 1.000000
vt 0.111111 1.000000
vt 0.000000 1.000000
vt 0.000000 1.000000
vt 0.111111 1.000000
vt 1.000000 1.000000
vt 1.000000 1.000000
vt 0.222222 1.000000
vt 0.888889 1.000000
vt 0.888889 1.000000
vt 0.777778 1.000000
vt 0.666667 1.000000
vt 0.777778 1.000000
vt 0.888889 1.000000
vt 0.777778 1.000000
vt 0.111111 1.000000
vt 0.000000 1.000000
vt 0.444444 1.000000
vt 0.444444 1.000000
vt 0.333333 1.000000
vt 0.666667 1.000000
vt 0.222222 1.000000
vt 0.555556 1.000000
vt 1.000000 1.000000
vt 1.000000 1.000000
vt 0.888889 1.000000
vt 0.222222 1.000000
vt 0.111111 1.000000
vt 0.555556 1.000000
vt 0.444444 1.000000
vt 0.777778 1.000000
vt 0.000000 1.000000
vt 0.333333 1.000000
vt 0.666667 1.000000
vt 0.333333 1.000000
vt 0.222222 1.000000
vt 0.666667 1.000000
vt 0.555556 1.000000
vt 1.000000 1.000000
vt 0.888889 1.000000
vt 0.111111 1.000000
vt 0.444444 1.000000
vt 0.777778 1.000000
vt 0.000000 1.000000
vt 0.111111 1.000000
vt 0.000000 1.000000
vt 0.444444 1.000000
vt 0.333333 1.000000
vt 0.777778 1.000000
vt 0.666667 1.000000
vt 0.222222 1.000000
vt 0.555556 1.000000
vt 1.000000 1.000000
vt 0.888889 1.000000
vt 0.000000 1.000000
vt 0.111111 1.000000
vt 0.000000 1.000000
vt 0.888889 1.000000
vt 0.222222 1.000000
vt 1.000000 1.000000
vt 1.000000 1.000000
vt 0.111111 1.000000
vt 0.000000 1.000000
vt 0.777778 1.000000
vt 0.666667 1.000000
vt 0.111111 1.000000
vt 0.222222 1.000000
vt 0.555556 1.000000
vt 0.444444 1.000000
vt 0.000000 1.000000
vt 0.333333 1.000000
vt 0.333333 1.000000
vn -0.9844 -0.0311 -0.1734
vn 0.2241 -0.0520 -0.9732
vn 0.9848 0.0000 0.1734
vn -0.1000 -0.0577 0.9933
vn 0.6212 -0.7760 0.1094
vn -0.1415 0.3544 0.9243
vn 0.0000 1.0000 0.0000
vn 0.1302 0.5095 -0.8505
vn 0.6370 0.7627 0.1122
vn -0.9642 -0.2035 -0.1698
vn 0.1456 -0.3123 -0.9388
vn -0.1338 -0.4870 0.8631
vn -0.6372 -0.7625 -0.1122
vn 0.9454 0.2802 0.1665
vn 0.5071 0.8573 0.0893
vn -0.9667 0.1910 -0.1702
vn -0.1203 0.6312 0.7662
vn 0.1072 0.7226 -0.6829
vn -0.1583 -0.0215 0.9872
vn 0.1358 0.5147 -0.8465
vn 0.8967 0.4135 0.1579
vn -0.9773 0.1238 -0.1721
vn 0.3418 0.0360 -0.9391
vn 0.8655 0.0360 -0.4997
vn 0.9842 0.0360 0.1735
vn 0.6424 0.0360 0.7655
vn -0.0000 0.0360 0.9994
vn -0.6424 0.0360 0.7655
vn -0.9842 0.0360 0.1735
vn -0.8655 0.0360 -0.4997
vn -0.3418 0.0360 -0.9391
vn 0.0000 0.0000 1.0000
vn -0.6104 0.3137 0.7274
vn 0.9351 0.3137 0.1649
vn -0.9351 0.3137 0.1649
vn 0.6104 0.3137 0.7274
vn 0.3248 0.3137 -0.8923
vn -0.8223 0.3137 -0.4748
vn 0.0000 0.3137 0.9495
vn 0.8223 0.3137 -0.4748
vn -0.3248 0.3137 -0.8923
vn 0.0000 -0.0934 0.9956
vn 0.8622 -0.0934 -0.4978
vn -0.3405 -0.0934 -0.9356
vn -0.6400 -0.0934 0.7627
vn 0.9805 -0.0934 0.1729
vn -0.9805 -0.0934 0.1729
vn 0.6400 -0.0934 0.7627
vn 0.3405 -0.0934 -0.9356
vn -0.8622 -0.0934 -0.4978
vn 0.7687 -0.4606 0.4438
vn -0.8741 -0.4606 -0.1541
vn -0.6279 0.2143 0.7483
vn -0.0000 0.2143 0.9768
vn 0.0000 -0.4606 -0.8876
vn 0.6279 0.2143 0.7483
vn 0.8741 -0.4606 -0.1541
vn -0.7687 -0.4606 0.4438
vn 0.9619 0.2143 0.1696
vn 0.0451 0.3370 0.9404
vn 0.1877 0.9817 -0.0331
vn -0.1225 0.9817 -0.1460
vn -0.0652 0.9817 0.1791
vn 0.2938 -0.2544 0.9214
vn 0.9334 0.3531 0.0644
vn 0.8564 -0.2544 0.4493
vn -0.7585 0.3410 -0.5553
vn 0.9149 0.3376 0.2212
vn -0.1506 0.8979 0.4137
vn 0.3812 0.8979 0.2201
vn 0.0000 0.8979 -0.4402
vn -0.3812 0.8979 0.2201
vn 0.1506 0.8979 0.4137
vn 0.2830 0.8979 -0.3372
vn -0.4335 0.8979 -0.0764
vn 0.4335 0.8979 -0.0764
vn -0.2830 0.8979 -0.3372
vn -0.9848 0.0000 0.1736
vn 0.6428 0.0000 0.7660
vn 0.3420 0.0000 -0.9397
vn -0.8660 0.0000 -0.5000
vn 0.8660 0.0000 -0.5000
vn -0.3420 0.0000 -0.9397
vn -0.6428 0.0000 0.7660
vn 0.9848 0.0000 0.1736
vn 0.1734 -0.7221 0.6697
vn 0.3684 -0.8194 -0.4391
vn -0.6896 -0.7221 -0.0545
vn 0.5645 -0.8194 -0.0995
vn -0.3684 -0.8194 -0.4391
vn -0.2634 -0.6378 0.7237
vn 0.4964 -0.8194 0.2866
vn -0.0000 -0.8194 -0.5732
vn -0.6670 -0.6378 0.3851
vn 0.0000 -1.0000 -0.0000
vn 0.0400 0.9981 -0.0476
vn -0.9619 0.2143 0.1696
vn -0.3036 -0.4606 0.8341
vn 0.5705 -0.4606 -0.6799
vn -0.8459 0.2143 -0.4884
vn 0.3341 0.2143 -0.9179
vn -0.3341 0.2143 -0.9179
vn -0.5705 -0.4606 -0.6799
vn 0.8459 0.2143 -0.4884
vn 0.3036 -0.4606 0.8341
vn -0.2551 0.7648 0.5916
vn -0.1418 0.8149 0.5620
vn 0.5028 0.8486 -0.1648
vn -0.4420 0.7648 -0.4687
vn 0.5780 0.8149 -0.0420
vn -0.2793 0.8486 -0.4494
vn -0.8136 -0.2480 0.5259
vn -0.5229 0.3410 0.7812
vn -0.6390 0.3370 0.6914
vn -0.9444 -0.2480 -0.2159
vn -0.0986 0.3531 0.9304
vn -0.8346 0.3482 -0.4269
vn -0.0374 -0.2487 -0.9679
vn -0.4193 0.3287 -0.8462
vn -0.2754 0.3482 -0.8960
vn 0.6508 -0.2487 -0.7174
vn 0.7841 0.3376 -0.5208
vn 0.8652 0.3287 -0.3787
usemtl None
s off
f 1/1/1 2/2/1 4/3/1 3/4/1
f 3/4/2 4/3/2 8/5/2 7/6/2
f 7/6/3 8/5/3 6/7/3 5/8/3
f 5/8/4 6/7/4 2/9/4 1/10/4
f 3/11/5 7/6/5 5/8/5 1/12/5
f 2/9/6 6/7/6 12/13/6 9/14/6
f 11/15/7 10/16/7 9/17/7 12/13/7
f 8/5/8 4/3/8 10/18/8 11/15/8
f 6/7/9 8/5/9 11/15/9 12/13/9
f 4/3/10 2/2/10 9/19/10 10/18/10
f 6/7/11 2/9/11 13/20/11 15/21/11
f 4/3/12 8/5/12 16/22/12 14/23/12
f 8/5/13 6/7/13 15/21/13 16/22/13
f 2/2/14 4/3/14 14/23/14 13/24/14
f 16/22/15 15/21/15 19/25/15 20/26/15
f 13/24/16 14/23/16 18/27/16 17/28/16
f 15/21/17 13/20/17 17/29/17 19/25/17
f 14/23/18 16/22/18 20/26/18 18/27/18
f 19/25/19 17/29/19 21/30/19 23/31/19
f 18/27/20 20/26/20 24/32/20 22/33/20
f 20/26/21 19/25/21 23/31/21 24/32/21
f 17/28/22 18/27/22 22/33/22 21/34/22
f 25/35/23 26/36/23 28/37/23 27/38/23
f 27/38/24 28/37/24 30/39/24 29/40/24
f 29/40/25 30/39/25 32/41/25 31/42/25
f 31/42/26 32/41/26 34/43/26 33/44/26
f 33/44/27 34/43/27 36/45/27 35/46/27
f 35/46/28 36/45/28 38/47/28 37/48/28
f 37/48/29 38/47/29 40/49/29 39/50/29
f 39/50/30 40/49/30 42/51/30 41/52/30
f 41/52/31 42/51/31 26/53/31 25/54/31
f 35/46/32 37/48/32 49/55/32 48/56/32
f 33/44/32 35/46/32 48/56/32 47/57/32
f 31/42/32 33/44/32 47/57/32 46/58/32
f 25/35/32 27/38/32 44/59/32 43/60/32
f 29/40/32 31/42/32 46/58/32 45/61/32
f 27/38/32 29/40/32 45/61/32 44/59/32
f 41/52/32 25/54/32 43/62/32 51/63/32
f 39/50/32 41/52/32 51/63/32 50/64/32
f 37/48/32 39/50/32 50/64/32 49/55/32
f 49/55/7 50/64/7 59/65/7 58/66/7
f 46/58/7 47/57/7 56/67/7 55/68/7
f 43/60/7 44/59/7 53/69/7 52/70/7
f 50/64/7 51/63/7 60/71/7 59/65/7
f 47/57/7 48/56/7 57/72/7 56/67/7
f 44/59/7 45/61/7 54/73/7 53/69/7
f 51/63/7 43/62/7 52/74/7 60/71/7
f 48/56/7 49/55/7 58/66/7 57/72/7
f 45/61/7 46/58/7 55/68/7 54/73/7
f 57/72/33 58/66/33 67/75/33 66/76/33
f 54/73/34 55/68/34 64/77/34 63/78/34
f 58/66/35 59/65/35 68/79/35 67/75/35
f 55/68/36 56/67/36 65/80/36 64/77/36
f 52/70/37 53/69/37 62/81/37 61/82/37
f 59/65/38 60/71/38 69/83/38 68/79/38
f 56/67/39 57/72/39 66/76/39 65/80/39
f 53/69/40 54/73/40 63/78/40 62/81/40
f 60/71/41 52/74/41 61/84/41 69/83/41
f 65/80/42 66/76/42 75/85/42 74/86/42
f 62/81/43 63/78/43 72/87/43 71/88/43
f 69/83/44 61/84/44 70/89/44 78/90/44
f 66/76/45 67/75/45 76/91/45 75/85/45
f 63/78/46 64/77/46 73/92/46 72/87/46
f 67/75/47 68/79/47 77/93/47 76/91/47
f 64/77/48 65/80/48 74/86/48 73/92/48
f 61/82/49 62/81/49 71/88/49 70/94/49
f 68/79/50 69/83/50 78/90/50 77/93/50
f 42/51/51 40/49/51 140/95/51 141/96/51
f 32/41/52 30/39/52 135/97/52 136/98/52
f 84/99/53 85/100/53 148/101/53 147/102/53
f 83/103/54 84/99/54 147/102/54 146/104/54
f 36/45/55 34/43/55 137/105/55 138/106/55
f 82/107/56 83/103/56 146/104/56 145/108/56
f 40/49/57 38/47/57 139/109/57 140/95/57
f 30/39/58 28/37/58 134/110/58 135/97/58
f 81/111/59 82/107/59 145/108/59 144/112/59
f 84/99/60 83/103/60 154/113/60 155/114/60
f 86/115/61 85/100/61 94/116/61 95/117/61
f 83/103/62 82/107/62 91/118/62 92/119/62
f 80/120/63 79/121/63 88/122/63 89/123/63
f 96/124/64 88/125/64 168/126/64 167/127/64
f 88/122/65 79/121/65 159/128/65 168/129/65
f 95/117/66 96/124/66 167/127/66 166/130/66
f 80/120/67 89/123/67 160/131/67 151/132/67
f 82/107/68 81/111/68 152/133/68 153/134/68
f 90/135/32 89/123/32 98/136/32 99/137/32
f 88/125/32 96/124/32 105/138/32 97/139/32
f 94/116/32 93/140/32 102/141/32 103/142/32
f 91/118/32 90/135/32 99/137/32 100/143/32
f 95/117/32 94/116/32 103/142/32 104/144/32
f 92/119/32 91/118/32 100/143/32 101/145/32
f 89/123/32 88/122/32 97/146/32 98/136/32
f 96/124/32 95/117/32 104/144/32 105/138/32
f 93/140/32 92/119/32 101/145/32 102/141/32
f 98/136/69 97/146/69 106/147/69 107/148/69
f 105/138/70 104/144/70 113/149/70 114/150/70
f 102/141/71 101/145/71 110/151/71 111/152/71
f 99/137/72 98/136/72 107/148/72 108/153/72
f 97/139/73 105/138/73 114/150/73 106/154/73
f 103/142/74 102/141/74 111/152/74 112/155/74
f 100/143/75 99/137/75 108/153/75 109/156/75
f 104/144/76 103/142/76 112/155/76 113/149/76
f 101/145/77 100/143/77 109/156/77 110/151/77
f 113/149/78 112/155/78 121/157/78 122/158/78
f 110/151/79 109/156/79 118/159/79 119/160/79
f 107/148/80 106/147/80 115/161/80 116/162/80
f 114/150/81 113/149/81 122/158/81 123/163/81
f 111/152/32 110/151/32 119/160/32 120/164/32
f 108/153/82 107/148/82 116/162/82 117/165/82
f 106/154/83 114/150/83 123/163/83 115/166/83
f 112/155/84 111/152/84 120/164/84 121/157/84
f 109/156/85 108/153/85 117/165/85 118/159/85
f 115/166/86 123/163/86 132/167/86 124/168/86
f 121/157/87 120/164/87 129/169/87 130/170/87
f 118/159/88 117/165/88 126/171/88 127/172/88
f 122/158/89 121/157/89 130/170/89 131/173/89
f 119/160/90 118/159/90 127/172/90 128/174/90
f 116/162/91 115/161/91 124/175/91 125/176/91
f 123/163/92 122/158/92 131/173/92 132/167/92
f 120/164/93 119/160/93 128/174/93 129/169/93
f 117/165/94 116/162/94 125/176/94 126/171/94
f 136/98/95 135/97/95 144/112/95 145/108/95
f 139/109/95 138/106/95 147/102/95 148/101/95
f 133/177/95 141/96/95 150/178/95 142/179/95
f 135/97/95 134/110/95 143/180/95 144/112/95
f 138/106/95 137/105/95 146/104/95 147/102/95
f 141/96/95 140/95/95 149/181/95 150/178/95
f 137/105/95 136/98/95 145/108/95 146/104/95
f 140/95/95 139/109/95 148/101/95 149/181/95
f 134/110/95 133/182/95 142/183/95 143/180/95
f 132/167/96 131/173/96 130/170/96 129/169/96 128/174/96 127/172/96 126/171/96 125/176/96 124/168/96
f 85/100/97 86/115/97 149/181/97 148/101/97
f 28/37/98 26/36/98 133/182/98 134/110/98
f 38/47/99 36/45/99 138/106/99 139/109/99
f 86/115/100 87/184/100 150/178/100 149/181/100
f 79/121/101 80/120/101 143/180/101 142/183/101
f 87/184/102 79/185/102 142/179/102 150/178/102
f 34/43/103 32/41/103 136/98/103 137/105/103
f 80/120/104 81/111/104 144/112/104 143/180/104
f 26/53/105 42/51/105 141/96/105 133/177/105
f 153/134/106 152/133/106 161/186/106 162/187/106
f 158/188/107 157/189/107 166/130/107 167/127/107
f 155/114/108 154/113/108 163/190/108 164/191/108
f 152/133/109 151/132/109 160/131/109 161/186/109
f 159/192/110 158/188/110 167/127/110 168/126/110
f 156/193/111 155/114/111 164/191/111 165/194/111
f 89/123/112 90/135/112 161/186/112 160/131/112
f 91/118/113 82/107/113 153/134/113 162/187/113
f 85/100/114 84/99/114 155/114/114 156/193/114
f 90/135/115 91/118/115 162/187/115 161/186/115
f 86/115/116 95/117/116 166/130/116 157/189/116
f 87/184/117 86/115/117 157/189/117 158/188/117
f 92/119/118 93/140/118 164/191/118 163/190/118
f 94/116/119 85/100/119 156/193/119 165/194/119
f 79/185/120 87/184/120 158/188/120 159/192/120
f 93/140/121 94/116/121 165/194/121 164/191/121
f 81/111/122 80/120/122 151/132/122 152/133/122
f 83/103/123 92/119/123 163/190/123 154/113/123
